# xmcd
#
# Track frame offsets:
#	150
#	15712
#	32230
#	49712
#	64805
#	79640
#	97160
#	113260
#	129132
#	146637
#	164092
#	180910
#
# Disc length: 2632 seconds
#
# Revision: 1
# Processed by: cddbd v1.5PL3 Copyright (c) Steve Scherf et al.
# Submitted via: CDex 1.50Beta5
#
DISCID=960a460c
DTITLE=田原俊彦 - 田原俊彦A面コレクション 2
DYEAR=1900
DGENRE=Pop
TTITLE0=シャワーな気分
TTITLE1=さらば・・夏
TTITLE2=エル・オー・ヴィ・愛・N・G
TTITLE3=チャールストンにはまだ早い
TTITLE4=騎士道
TTITLE5=顔に書いた恋愛小説
TTITLE6=ラストシーンは腕の中で(WOMAN I LOVE ONLY YOU)
TTITLE7=銀河の神話
TTITLE8=堕ちないでマドンナ
TTITLE9=華麗なる賭け
TTITLE10=It's BAD
TTITLE11=Hardにやさしく
EXTD=
EXTT0=
EXTT1=
EXTT2=
EXTT3=
EXTT4=
EXTT5=
EXTT6=
EXTT7=
EXTT8=
EXTT9=
EXTT10=
EXTT11=
PLAYORDER=
